<svg width="17" height="17" fill="none" xmlns="http://www.w3.org/2000/svg"><path d="M1.836 15.833a.605.605 0 0 1-.467-.2c-.2-.2-.266-.466-.133-.666l1.333-3.934c-.4-.866-.6-1.866-.6-2.866 0-1.267.334-2.534 1.067-3.667a6.411 6.411 0 0 1 2.8-2.533c.867-.534 1.933-.8 3-.8h.4c1.733.066 3.333.8 4.6 2a6.77 6.77 0 0 1 2 4.533v.4c0 1.067-.267 2.133-.733 3.133-.6 1.134-1.467 2.134-2.534 2.8A6.935 6.935 0 0 1 8.903 15.1c-1 0-1.934-.2-2.867-.6l-4 1.333h-.2Zm7-13.333c-.867 0-1.733.2-2.467.6a5.656 5.656 0 0 0-2.266 2.067c-.534.866-.867 1.933-.867 2.933 0 .867.2 1.733.6 2.533.067.134.067.334.067.534l-1 2.933 2.933-1c.2-.067.333-.067.533.067.8.4 1.667.6 2.534.6 1.066 0 2.066-.267 2.933-.867a5.656 5.656 0 0 0 2.667-4.8v-.333a5.358 5.358 0 0 0-1.667-3.6c-.933-1-2.267-1.6-3.6-1.667h-.4Z" fill="#A7A7A7"/></svg>