<svg width="50" height="50" fill="none" xmlns="http://www.w3.org/2000/svg"><g clip-path="url(#a)"><path d="M4.297 30.098a15.384 15.384 0 0 1-.408-4.31c.194-4.103 1.403-5.163 2.1-5.43l-.023.005-.31.09-.306.09-.307.09-.303.09-.29.156-.289.156-.286.153-.286.152-.116.07-.119.071-.119.074-.12.075-.258.211-.259.211-.255.208-.256.207-.098.106-.096.113-.098.11-.1.109-.217.25-.218.247-.215.246-.214.243-.072.12-.071.122-.075.125-.072.126-.057.152-.058.153-.058.152-.062.145-.044.176-.044.176-.044.176-.045.176-.027.192-.027.195-.027.196-.028.195-.006.204-.007.203-.007.203v.208l.01.211.01.211.01.212.01.21.032.208.03.207.03.208.031.207.048.195.048.196.047.196.048.195.061.18.062.18.061.18.061.176.075.157.075.156.075.156.075.157.085.129.085.129.085.13.086.124.091.098.092.098.092.098.092.093.252.192.252.172.256.196.258.195.116.075.116.074.112.074.113.075.282.144.286.145.286.145.29.148.296.083.3.082.3.082.303.086.132.035.133.035.133.035.13.036.31.02.31.019.312.02.314.019.13-.016.105-.015c-.222.02-2.139.113-3.137-4.04Z" fill="url(#b)"/><path d="m9.467 24.637-.072-.25-.068-.254-.068-.255-.071-.254-.085-.227-.086-.23-.085-.231-.085-.23-.099-.204-.098-.2-.079-.16.906 2.558-.01-.063Z" fill="#363D4B"/><path d="m7.462 34.127-.021.003c.014 0 .021-.004.021-.004ZM6.228 20.32l.13-.024.129-.024s-.201-.027-.494.087l.106-.02.13-.02Z" fill="#5B6370"/><path d="M7.713 34.092c.252-.145-.01.004.48-.274.548-.58.354-.329.814-1.084.262-.633.45-1.001.654-2.155.204-1.154.19-1.89.2-2.374.028-1.522-.279-2.98-.38-3.513-1.019-2.867-.906-2.616-1.141-2.968-.399-.599-.3-.466-.457-.63-.432-.454-.327-.356-.49-.462l-.255-.16-.13-.082-.52-.121c-.158.027-.1.015-.256.043-.16.027-.106.02-.235.043-.698.27-1.907 1.326-2.101 5.429a15.398 15.398 0 0 0 .408 4.31c.998 4.15 2.915 4.056 3.14 4.033l.02-.004c.157-.016.1-.008.249-.031Z" fill="#C73305"/><path d="m13.74 41.774-.004-.04-.007-.034-.003-.036-.01-.035-.01-.039-.007-.039-.01-.035-.01-.04-.014-.038-.01-.04-.014-.039-.024-.058-.024-.063-.027-.059-.024-.062-.03-.059-.035-.062-.03-.063-.03-.063-.048-.086-.045-.086-.044-.09-.044-.086-.03-.07-.031-.066-.031-.07-.03-.071-.066-.18-.068-.18-.064-.176-.065-.18-.068-.243-.072-.242-.068-.243-.068-.242-.058-.282L12.46 38l-.057-.277-.058-.278-.02-.164-.021-.165-.024-.16-.02-.164-.004-.074-.007-.075-.003-.074-.004-.074V36.377l.017-.095.014-.097.014-.094.017-.094.017-.082.02-.082.017-.083.017-.078.007-.043.007-.043.007-.043.007-.039v-.027l.003-.028v-.027l.003-.027v-.083l-.003-.027-.003-.031v-.028l-.004-.027-.003-.027-.007-.02-.004-.02-.003-.02-.003-.019-.007-.02-.004-.019-.006-.02-.004-.019-.01-.023-.007-.02-.007-.02-.006-.02-.014-.03-.014-.028-.013-.031-.014-.027-.017-.032-.017-.031-.017-.031-.02-.028-.02-.031-.021-.027-.02-.032-.021-.027-.014-.02-.013-.02-.014-.019-.014-.02-.01-.019-.01-.015-.014-.02-.01-.02-.013-.035-.018-.031-.017-.035-.013-.032-.02-.05-.018-.051-.017-.051-.02-.051-.017-.066-.02-.07-.018-.067-.017-.07-.02-.102-.017-.102-.017-.098-.02-.102-.014-.133-.014-.133-.013-.133-.014-.129-.003-.144-.007-.141-.007-.145-.004-.14-.262-.067-.258-.063-.26-.066-.258-.063-.436-.07-.432-.07-.43-.071-.425-.07-.099-.004h-.197l-.1-.004-.064.008-.061.007-.061.008-.062.004-.034.012-.037.008-.034.011-.034.008-.225.067-.228.066-.232.067-.235.066.038-.008.034-.011.034-.008.037-.012.062-.008.064-.004.062-.008.064-.007h.099l.102.004h.102l.1.004.435.074.436.07.44.075.442.074.262.066.266.067.265.066.266.067.003.148.007.145.007.145.003.148.017.137.014.133.014.137.013.137.017.102.02.105.018.102.02.106.02.07.018.07.016.071.021.07.02.051.017.051.02.051.018.055.017.031.014.035.017.035.017.036.01.02.013.019.01.02.01.019.014.02.014.019.014.02.013.02.02.026.025.032.02.031.02.027.02.032.018.031.017.031.017.032.017.03.014.032.013.032.014.027.007.023.006.02.007.02.007.023.007.02.007.019.003.02.007.02.003.019.004.023.007.02.003.02.003.027.004.031.003.027.004.028v.144l-.004.028v.027l-.003.028-.007.043-.007.043-.007.043-.003.043-.02.082-.018.086-.02.082-.017.082-.017.098-.014.098-.013.097-.017.098v.122l.003.074.004.078.006.074.004.079.024.164.02.168.024.168.024.169.058.285.058.286.06.285.059.286.071.25.068.25.072.25.071.247.065.184.068.184.068.184.068.183.031.075.03.07.031.07.034.075.045.086.044.09.048.09.044.09.034.062.03.067.034.063.035.062.023.063.024.062.027.063.024.059.014.043.01.039.014.039.013.039.007.039.01.04.01.038.008.04.006.035.007.035.004.039.006.035v.035l.004.035.003.036.004.035-.004.035v.067l-.003.035-.004.031-.003.031-.003.035-.004.032-.007.027-.01.032-.007.03-.007.028-.006.031-.01.028-.01.027-.011.028-.014.027-.01.023-.013.028-.01.027-.018.024-.013.023-.014.024-.014.023-.017.023-.017.02-.017.024-.017.02-.027.03-.027.028-.027.027-.031.032-.03.023-.031.023-.031.024-.034.027.208-.145.2-.144.201-.141.201-.137.031-.023.03-.028.031-.023.031-.024.027-.027.027-.028.028-.027.027-.027.017-.024.017-.02.017-.023.014-.023.017-.02.013-.023.014-.024.014-.023.013-.028.01-.023.014-.027.01-.024.01-.027.01-.028.01-.027.008-.027.007-.032.006-.027.01-.031.007-.028.004-.031.003-.031.003-.032.004-.03.003-.036v-.133l-.003-.035v-.032l-.004-.035-.006-.035Z" fill="#C73305"/><path d="m7.542 32.19.1.004h.098l.099.004.098.004.433.07.436.075.436.074.442.075.239.062.238.063.239.058.241.059.004.117.003.118.004.117.003.117.014.141.013.141.014.137.013.14.02.106.021.106.02.106.021.105.02.075.021.074.02.074.02.074.021.055.02.055.021.055.02.054.018.04.017.039.017.039.017.039.013.023.014.024.013.023.014.024.014.02.013.019.014.02.014.019.02.031.02.028.02.027.021.031.017.028.017.027.017.027.018.028.013.027.014.028.013.027.01.027c.058.204.062.227.062.227l.003.024.004.023.003.024v.094l-.003.023-.004.024-.003.023v.023l-.007.04-.007.039-.007.039-.006.039-.017.082-.018.082-.02.082-.017.082-.014.102-.017.102-.013.102-.02.12V36.909l.006.078.004.078.006.078.004.082.024.173.024.172.023.172.024.168.061.29.062.289.058.29.05.293.072.254.072.254.071.254.072.255.068.187.068.188.068.188.068.188.034.074.034.074.03.075.035.074.048.09.047.09.048.09.048.09.03.062.031.063.03.063.031.062.024.059.024.058.024.06.024.058.01.035.01.035.01.04.01.035.007.035.007.035.007.035.007.035.003.032.007.035.003.031.007.035.004.032.003.03.003.032.004.032v.121l-.004.027-.003.027-.003.028-.004.027-.007.028-.007.027-.006.027-.007.028-.01.023-.01.024-.007.023-.01.024-.01.023-.011.024-.01.023-.01.023-.014.02-.014.02-.013.023-.014.02-.014.02-.013.019-.014.02-.013.019-.024.027-.024.028-.024.027-.024.027-.03.024-.028.023-.027.024-.027.023-.03.02-.031.02-.031.019-.03.02-.048.02-.045.019-.047.02-.045.019-.05.011-.052.012-.05.016-.052.012-.024.003-.027.004-.024.004-.024.004-.04.004-.041.004-.038.004-.04.004h-.273l-.058-.008-.058-.004-.058-.004-.058-.008-.061-.011-.058-.016-.061-.012-.058-.015-.044-.016-.048-.016-.044-.015-.048-.016-.048-.023-.044-.024-.047-.023-.048-.024-.048-.031-.048-.031-.047-.032-.048-.031-.048-.04-.047-.038-.048-.04-.048-.038-.047-.047-.048-.047-.048-.047-.047-.047-.048-.055-.051-.055-.048-.055-.047-.054-.051-.067-.052-.066-.057-.063-.052-.066-.064-.102-.065-.102-.065-.101-.064-.102-.065-.125-.068-.125-.065-.126-.068-.125-.065-.148-.068-.149-.068-.149-.068-.148-.065-.172-.068-.172-.064-.173-.065-.172-.058-.184-.058-.183-.058-.184-.058-.184-.05-.227-.052-.227-.05-.227-.052-.227-.04-.266-.042-.265-.04-.266-.041-.266-.086-.943-.085-.947-.088-.946-.089-.95-.02-.087-.02-.086-.021-.086-.02-.086-.018-.05-.017-.052-.017-.05-.017-.051-.02-.047-.02-.047-.02-.047-.021-.047-.01-.02-.01-.023-.011-.024-.01-.02-.024-.042-.034-.055-.024-.043-.024-.043-.01-.02-.01-.02-.01-.019-.01-.02-.01-.015-.011-.015-.01-.016-.01-.02c.153-.383.183-.39.183-.39l.031-.009.03-.008.031-.007.062-.008.06-.008.062-.008.061-.008Z" fill="#F97101"/><path d="m8.367 32.272-.433-.07-.098-.004-.1-.004h-.098l-.099-.004-.061.008-.061.008-.062.007-.06.008-.032.008-.03.008-.03.008-.031.008c-.154.383-.143.402-.143.402l.01.016.01.016.01.015.01.02.01.02.01.019.011.02.024.043.027.043.024.043.024.043.01.02.01.023.01.023.01.02.021.047.02.047.02.046.021.047.017.051.017.051.017.051.017.05.02.087.021.086.02.086.021.086.089.95.088.947.085.947.086.942.04.266.041.266.041.266.041.266.051.227.051.227.051.227.051.227.058.184.058.183.058.184.058.184.065.172.064.172.068.172.065.172.068.15.068.148.068.148.065.149.068.125.065.125.068.126.065.125.064.101.065.102.065.102.064.102.052.066.047.066.051.067.051.067.048.054.048.055.05.055.048.055.048.046.048.047.047.047.048.047.048.04.048.038.047.04.048.039.048.031.047.031.048.032.048.03.047.024.048.024.044.023.048.024.047.015.045.016.047.016.045.015.058.016.06.012.059.015.061.012.058.008.058.004.058.004.058.008h.272l.041-.004.037-.004.041-.004.041-.004.024-.004.024-.004.027-.004.024-.004.051-.012.051-.015.051-.012.051-.012.045-.02.047-.019.044-.02.048-.019.03-.02.031-.019.031-.02.03-.019.028-.023.027-.024.027-.023.031-.024.024-.027.024-.028.024-.027.023-.027.014-.02.014-.02.013-.02.014-.019.014-.02.013-.023.014-.02.013-.019.01-.023.01-.024.011-.023.01-.024.01-.023.007-.024.01-.023.01-.024.008-.027.006-.027.007-.028.007-.027.003-.028.004-.027.003-.027.004-.028v-.121l-.004-.031-.003-.031-.004-.032-.003-.031-.007-.035-.003-.032-.007-.035-.003-.031-.007-.035-.007-.035-.007-.036-.007-.035-.01-.035-.01-.04-.01-.034-.01-.036-.024-.058-.007-.063-.024-.059-.024-.058-.03-.063-.031-.062-.03-.063-.031-.063-.048-.09-.048-.09-.048-.09-.047-.09-.034-.074-.03-.074-.035-.074-.034-.075-.068-.187-.068-.188-.068-.188-.068-.188-.072-.254-.072-.254-.071-.254-.068-.243-.061-.29-.058-.289-.061-.29-.062-.289-.024-.168-.023-.172-.024-.172-.024-.172-.004-.082v-.078l-.003-.079-.007-.078V36.77l.017-.102.014-.101.017-.102.014-.102.017-.082.02-.082.017-.082.017-.082.007-.04.007-.038.006-.04.007-.039v-.023l.004-.023.003-.024.004-.023v-.094l-.004-.024-.003-.023-.004-.024-.003-.023c-.058-.204-.068-.231-.068-.231l-.014-.027-.013-.028-.014-.027-.017-.027-.017-.028-.017-.027-.017-.028-.02-.03-.021-.028-.02-.028-.021-.031-.014-.02-.013-.02-.014-.019-.013-.02-.014-.023-.014-.023-.013-.024-.014-.023-.017-.04-.017-.038-.017-.04-.017-.039-.02-.054-.02-.055-.021-.055-.02-.055-.021-.074-.017-.094-.02-.074-.021-.074-.02-.106-.02-.106-.021-.105-.02-.106-.014-.14-.014-.138-.014-.14-.013-.141-.004-.117-.003-.118-.003-.121-.004-.117-.242-.06-.238-.058-.238-.062-.239-.063-.442-.074-.436-.075-.436-.074Zm.548 9.313-.068-.148-.068-.15-.068-.148-.068-.148-.069-.176-.06-.176-.069-.176-.068-.176-.058-.188-.058-.188-.058-.188-.058-.187-.05-.231-.055-.23-.051-.232-.051-.23-.041-.27-.041-.27-.04-.27-.042-.27-.085-.939-.085-.938-.085-.943-.085-.947-.02-.078-.021-.078-.02-.078-.018-.079-.017-.047-.017-.047-.017-.047-.017-.046-.017-.043-.017-.047-.017-.043-.02-.047-.01-.02-.01-.02-.01-.019-.011-.02-.024-.039-.024-.039-.024-.039-.023-.039-.014-.02-.01-.02-.014-.019-.01-.02-.01-.019-.01-.02-.01-.023-.01-.02-.008-.023-.007-.02-.006-.023-.007-.02-.004-.023-.003-.02-.003-.023-.004-.023v-.094l.004-.02.003-.02.003-.019.004-.02.007-.02.006-.019.007-.02.007-.019c.153-.14.167-.148.167-.148l.03-.016.018-.008.034-.012.034-.011.034-.012.034-.012.061-.008.061-.007.062-.008.064-.008.103.004h.102l.102.004.102.004.432.074.436.074.44.075.442.074.262.066.266.075.266.066.265.067.007.144.007.145.007.145.007.145.013.136.014.137.014.137.013.137.017.106.017.102.02.105.018.102.02.07.02.07.018.071.017.07.02.051.02.051.02.051.018.05.017.036.017.035.017.035.017.036.01.02.01.019.01.02.01.019.014.02.014.019.014.02.013.02.02.03.021.032.02.031.021.031.017.032.017.03.017.032.017.031.014.032.013.031.014.031.014.032.006.02.007.019.007.02.007.019.007.02.006.019.007.02.007.02.003.019.004.02.003.019.004.02.003.027.01.035.004.027.003.028v.109l-.003.028v.027l-.004.027v.028l-.007.043-.006.043-.007.043-.007.043-.017.082-.017.082-.02.082-.017.082-.018.098-.013.098-.014.098-.017.097v.126l.004.074.003.074.004.075.003.074.024.168.024.168.023.168.024.169.058.285.058.286.061.297.058.286.072.25.071.25.072.25.071.25.068.185.068.184.069.183.068.184.03.07.031.071.03.07.031.07.044.09.045.09.044.09.048.09.034.063.034.063.03.063.034.062.024.063.024.062.024.063.024.062.014.04.013.039.014.039.013.039.01.039.01.04.011.038.01.04.007.034.007.036.007.035.006.035.004.035.003.035.004.036.003.035V42.622l-.003.031-.004.031-.027.04-.003.03-.007.032-.007.031-.007.032-.007.03-.01.028-.01.028-.01.027-.01.027-.014.028-.014.027-.013.028-.01.027-.014.023-.014.024-.013.023-.014.024-.017.023-.017.024-.017.023-.017.024-.027.027-.028.028-.027.027-.027.027-.03.024-.031.023-.031.024-.03.023-.035.02-.034.02-.034.019-.034.02-.051.019-.048.02-.05.019-.048.02-.052.015-.05.016-.052.012-.05.015-.028.004-.027.004-.027.004-.028.004-.04.004-.041.004-.041.004-.041.004H11.37l-.061-.008-.058-.008-.061-.008-.058-.008-.065-.015-.061-.016-.065-.016-.061-.015-.048-.02-.048-.016-.047-.02-.051-.019-.048-.023-.051-.024-.048-.023-.047-.024-.051-.03-.052-.032-.05-.031-.052-.032-.05-.039-.052-.039-.05-.04-.052-.038-.051-.047-.051-.047-.051-.047-.051-.047-.051-.059-.051-.058-.052-.055-.05-.059-.052-.066-.05-.067-.052-.066-.05-.067-.069-.105-.068-.106-.068-.105-.068-.106-.068-.13-.069-.128-.068-.13-.078-.113Z" fill="#FAB442"/><path d="m31.308 19.154-.065-.544-.065-.548-.064-.551-.075-.517-.075-.52-.075-.524-.075-.528-.085-.485-.082-.481-.085-.493-.089-.497-.095-.442-.095-.446-.099-.453-.099-.458-.102-.391-.105-.395-.106-.4-.106-.402-.109-.325-.112-.328-.112-.337-.116-.34-.116-.25-.12-.254-.118-.259-.123-.262-.119-.16-.123-.164-.122-.169-.126-.168-.12-.058-.122-.063-.12-.059-.125-.062-.474.125-.47.121-.466.121-.463.122-.466.121-.457.117-.453.118-.45.117-.142.059-.143.058-.147.059-.15.063-.422.387-.415.383-.412.38-.409.375-.136.176-.14.176-.14.18-.142.18-.375.52-.371.513-.364.508-.256.356-.32.399-.364.458-.358.45-.36.41-.358.407-.355.399-.35.395-.354.356-.351.352-.348.348-.343.344-.348.305-.344.305-.34.302-.337.297-.34.262-.338.258-.334.258-.33.255-.334.218-.333.216-.324.21-.28.153-.333.18-.33.176-.327.176-.33.141-.327.141-.327.14-.324.138-.327.105-.323.106-.32.102-.32.101-.324.07-.32.071-.317.067-.044.011-.204.024-.313.035-.314.035-.31.035-.098.02-.1.02-.098.02-.099.019-.095.054-.095.055-.096.055-.095.055-.089.09-.088.09-.089.094-.088.093-.078.126-.079.129-.078.129-.082.129-.068.16-.068.16-.068.16-.068.161-.055.188-.054.188-.055.188-.054.191-.038.211-.037.212-.038.215-.037.215-.02.23-.02.231-.021.231-.02.231-.004.242-.004.243-.003.242-.003.243.013.246.014.247.013.246.014.247.03.242.031.243.031.242.03.243.048.234.048.235.048.23.047.232.065.215.061.215.062.215.061.215.075.192.075.191.075.192.075.192.085.164.085.164.085.165.085.164.096.133.095.133.092.133.092.129.098.098.1.098.098.097.099.098.102.063.102.062.102.059.099.059.102.023.102.024.102.023.1.023.31-.035.309-.035.313-.035.314-.035.316-.004.32-.004.32-.004.324-.004.327.027.327.028.33.027.334.028.333.062.338.063.34.062.28.051c.006.004.35.098.35.098l.347.098.348.098.35.133.351.133.354.133.358.136.36.172.362.173.364.172.368.176.371.211.371.215.375.215.378.215.381.255.385.254.388.258.297.196.343.262.392.297.395.301.399.34.401.345.405.348.412.352.413.395.418.399.423.403.425.406.157.114.157.113.153.11.15.11.436.258.442.262.446.266.45.266.453.011.456.012.46.012.463.011.466.012.47.012.474.012.476.011h.477l.11-.11.108-.105.106-.105.105-.102.099-.203.095-.2.096-.196.091-.195.082-.286.082-.281.082-.278.078-.274.068-.356.068-.352.068-.348.065-.34.055-.415.054-.41.054-.403.052-.4.04-.46.041-.459.038-.453.037-.45.024-.497.024-.493.024-.489.024-.485.01-.528.01-.524.01-.52.01-.516-.003-.548-.003-.544-.004-.543-.003-.54-.014-.56-.013-.559-.014-.56-.014-.554-.027-.568-.027-.567v-.551l-.027-.567-.041-.564-.041-.563-.041-.567-.04-.567-.052-.556-.051-.559-.051-.56-.051-.563-.068-.54Z" fill="url(#c)"/><path d="m19.042 13.243.398-.438.405-.442.351-.387.286-.344.409-.493.412-.497.419-.504.16-.176.156-.172.154-.173.153-.168.453-.367.46-.368.463-.372.466-.375.164-.063.163-.058.16-.06.157-.058.497-.121.5-.121.505-.122.507-.12.51-.126.515-.125.16-.04a6.85 6.85 0 0 1-.133-.066l-.126-.062-.473.125-.47.121-.467.121-.463.122-.47.117-.456.117-.453.118-.45.117-.142.059-.143.058-.147.059-.15.063-.422.387-.415.383-.412.38-.41.375-.135.176-.14.176-.14.18-.143.18-.374.52-.371.513-.365.508-.255.356-.32.399-.364.458-.218.273.044-.043ZM30.878 40.424l-.125.004-.13.004-.133.003-.132.004-.525-.004-.52-.004-.515-.003-.51-.004-.508-.004-.504-.004-.5-.004-.498-.004-.49-.246-.484-.247-.48-.242-.477-.239-.163-.102-.167-.101-.17-.106-.17-.105-.464-.38-.456-.375-.453-.372-.45-.368-.445-.328-.443-.325-.436-.32-.433-.321-.429-.282-.425-.278-.375-.246-.323-.184-.423-.239-.418-.238-.416-.235-.412-.2-.409-.199-.405-.195-.402-.196-.401-.16-.399-.16-.395-.161-.391-.157-.392-.125-.388-.12-.385-.122-.381-.121-.382-.087-.378-.086-.374-.086c-.007 0-.317-.047-.317-.047l-.371-.054-.371-.055-.368-.055-.364-.023-.361-.024-.361-.02-.358-.019-.354.012-.354.008-.351.008-.347.007-.348.04-.344.039-.34.039-.34.039-.072-.012.02.027.092.13.099.097.099.098.098.098.1.098.101.062.103.063.102.059.098.058.103.024.102.023.102.024.099.023.31-.035.31-.035.313-.036.313-.035.317-.004.32-.004.32-.004.323-.003.327.027.327.027.33.028.334.027.334.063.337.062.34.063.28.05c.007.005.35.099.35.099l.348.097.347.098.351.133.35.133.355.133.357.137.361.172.361.172.365.172.367.176.372.211.37.216.375.215.378.215.382.254.384.254.389.259.296.195.344.262.392.297.395.302.398.34.402.344.405.348.412.352.412.395.419.4.422.402.426.407.156.113.157.114.153.11.15.109.436.258.443.262.446.266.45.266.452.012.456.011.46.012.463.012.467.012.47.011.473.012.477.012h.477l.108-.11.11-.105.105-.106.106-.102.098-.203.096-.2.095-.195.092-.196.082-.285.071-.239-.082.07Z" fill="#D2D1CF"/><path d="m22.553 13.928 7.008-4.165-.112-.337-.112-.336-.116-.34-.116-.25-.092-.196c-1.434.422-2.949.95-4.199 1.572-3.555 1.768-7.552 11.19-16.164 12.427-1.291.184-2.493.113-3.576-.063l-.027.047-.078.13-.082.128-.068.16-.068.161-.068.16-.069.16-.054.189-.055.187-.054.188-.055.192c12.484 1.944 18.157-10.014 18.157-10.014Z" fill="#F1F1F1"/><path d="M23.003 12.387c.235-.262.35-.814.402-1.479-3.256 3.032-7.257 10.315-14.759 11.394-1.29.184-2.492.114-3.575-.062l-.027.047-.079.129-.082.129-.068.16-.013.031c1.11.411 2.847.654 5.418.09 5.393-1.193 11.931-9.477 12.783-10.44Z" fill="#fff"/><path d="m31.247 18.61-.065-.544-.065-.551-.075-.517-.074-.52-.075-.524-.075-.528-.085-.481-.085-.49-.089-.492-.085-.497-.096-.442-.095-.446-.099-.453-.095-.458-.102-.387-.106-.395-.105-.4-.106-.406-.112-.325-.113-.328-.112-.337-.116-.34-.115-.25-.116-.254-.123-.255-.119-.262-.12-.164-.122-.16-.122-.169-.126-.168-.12-.058-.122-.063-.123-.063-.126-.062-.477.125-.47.121-.47.121-.462.122-.46.121-.456.117-.457.122-.45.117-.139.059-.146.058-.147.059-.15.063-.422.387-.316.293-.566 2.26-.52 3.478-.273 3.888-.007 4.142.266 4.229.524 4.126.76 3.86.95 3.447 1.093 2.914.34.653.044.027.446.266.453.012.457.016.46.011.462.012.467.012.47.016.473.011.477.012h.477l.112-.11.106-.105.109-.106.105-.105.096-.2.098-.203.092-.196.096-.195.081-.286.082-.281.082-.278.081-.274.069-.356.068-.348.064-.348.069-.34.054-.415.054-.41.052-.404.054-.399.038-.461.04-.458.038-.45.04-.45.024-.496.028-.497.024-.489.023-.485.014-.528.01-.524.01-.52.014-.517-.003-.547v-.548l-.004-.54v-.543l-.017-.56-.013-.559-.017-.555-.014-.56-.027-.563-.027-.567-.028-.563-.03-.567-.038-.564-.04-.563-.042-.567-.04-.571-.052-.552-.05-.559-.055-.56-.051-.563-.065-.54-.061-.543Z" fill="url(#d)"/><path d="m30.687 18.387-.258-1.835-.297-1.72-.327-1.577-.354-1.396-.381-1.17-.398-.9-.41-.578-.411-.22-.402.188-.375.63-.337 1.088-.282 1.552-.211 1.991-.13 2.375-.034 2.687.061 2.89.157 2.973.245 2.93.324 2.765.384 2.488.426 2.135.453 1.725.456 1.283.45.837.425.403h.399l.354-.367.313-.697.27-.977.217-1.22.17-1.429.123-1.591.075-1.726.03-1.83-.016-1.909-.058-1.956-.102-1.987-.143-1.983-.184-1.963-.222-1.909Z" fill="#899FB1"/><path opacity=".34" d="m22.842 34.275.082.414.913 3.317 4.038-.254-.93-3.794-4.103.317Z" fill="#AB5405"/><path d="m21.654 14.444-.2 2.852 4.433-.7.735-6.712-4.447 1.095-.521 3.465Z" fill="#FF5405"/><path d="m31.117 17.515-.3-2.089-.343-1.96-.385-1.799-.419-1.588-.453-1.33-.473-1.02-.49-.662-.49-.246-.484.219-.457.72-.408 1.243-.35 1.772-.267 2.273-.166 2.71-.062 3.067.058 3.294.17 3.39.28 3.341.37 3.149.45 2.84.5 2.432.532 1.96.542 1.459.534.95.511.458h.477l.432-.426.382-.794.326-1.119.27-1.392.214-1.628.157-1.818.098-1.968.048-2.089-.007-2.178-.061-2.234-.112-2.26-.16-2.265-.208-2.234-.256-2.178Z" fill="url(#e)"/><path d="m29.86 42.059-.51-.458-.535-.95-.54-1.463-.532-1.96-.5-2.433-.45-2.84-.371-3.148-.28-3.34-.17-3.392-.058-3.293.061-3.067.167-2.71.266-2.273.35-1.772.41-1.243.456-.72.255-.118-.116-.058-.483.219-.457.72-.408 1.243-.35 1.772-.267 2.273-.166 2.71-.062 3.067.058 3.294.17 3.39.28 3.341.37 3.149.45 2.84.5 2.432.532 1.96.542 1.459.534.95.511.458h.477l.04-.043-.173.004Z" fill="#FAD042"/><path d="m30.687 18.387-.258-1.835-.297-1.72-.327-1.577-.354-1.396-.381-1.17-.398-.9-.41-.578-.411-.22-.402.188-.375.63-.337 1.088-.282 1.552-.211 1.991-.13 2.375-.034 2.687.061 2.89.157 2.973.245 2.93.324 2.765.384 2.488.426 2.135.453 1.725.456 1.283.45.837.425.403h.399l.354-.367.313-.697.27-.977.217-1.22.17-1.429.123-1.591.075-1.726.03-1.83-.016-1.909-.058-1.956-.102-1.987-.143-1.983-.184-1.963-.222-1.909Z" fill="url(#f)"/><path d="m30.688 18.387-.259-1.835-.296-1.72-.327-1.577-.354-1.396-.382-1.17-.398-.9-.409-.578-.412-.22-.32.15.239.128.412.583.398.9.382 1.17.354 1.392.326 1.58.297 1.721.259 1.83.22 1.913.185 1.96.143 1.987.102 1.983.058 1.96.017 1.905-.03 1.834-.076 1.725-.122 1.592-.17 1.424-.218 1.224-.27.978-.313.696-.279.29.017.015h.398l.355-.367.313-.697.269-.977.218-1.22.17-1.429.123-1.591.075-1.726.03-1.83-.017-1.909-.058-1.956-.102-1.987-.143-1.983-.184-1.963-.221-1.909Z" fill="#D0CFCD"/><path d="m33.222 23.754-.02-.149-.024-.125-.024-.102-.007-.023a.09.09 0 0 1 .007.023l-.065-.215-.065-.215-.064-.211-.065-.211-.014-.035-.013-.036-.014-.039-.014-.039-.112-.207-.112-.204-.113-.203-.112-.203-.02-.036-.02-.035-.021-.035-.02-.035-.154-.18-.153-.18-.153-.18-.154-.18-.184-.14-.18-.138-.18-.136-.181-.137-.03-.02-.031-.02-.03-.02-.032-.019-.207-.093-.198-.106-.208-.094-.207-.094-.222-.043-.218-.043-.217-.043-.218-.043-.215.008-.214.008-.215.008-.211.007-.31.047-.31.047-.306.047-.307.047-.296.047-.293.047-.29.047-.098.015.054 2.508.157 2.972.245 2.93.221 1.885.208-.015.297-.02.296-.02.306-.019.307-.023.31-.024.31-.023.04-.004.041-.004.041-.004.04-.004.209-.039.207-.04.208-.038.211-.04.208-.09.208-.09.207-.09.212-.09.19-.136.19-.137.192-.137.194-.137.167-.18.166-.18.167-.18.167-.18.02-.027.021-.027.02-.028.02-.027.13-.207.13-.208.129-.207.13-.211.088-.235.092-.235.092-.234.095-.235.01-.027.01-.028.01-.027.011-.027.007-.043.007-.043.007-.044.006-.043.038-.219.037-.219.038-.219.037-.219.014-.113.01-.133.003-.153v-.168l-.003-.18-.01-.184-.014-.18-.017-.176-.01-.156Z" fill="#C73305"/><path d="M33.283 24.801v-.168l-.004-.18-.01-.184-.013-.18-.017-.175-.02-.165-.021-.148-.024-.126-.024-.101-.007-.024c.004.004.007.024.007.024l-.065-.215-.064-.216-.065-.21-.065-.212-.013-.035-.014-.035-.014-.04-.013-.039-.113-.207-.112-.203-.112-.204-.113-.203-.02-.035-.02-.036-.021-.035-.02-.035-.154-.18-.153-.18-.153-.18-.153-.18-.184-.14-.18-.137-.181-.137-.18-.137-.031-.02-.031-.02-.03-.019-.031-.02-.208-.093-.194-.102-.208-.094-.208-.094-.22-.043-.219-.043c-.014.008-.204 1.166-.204 1.166l-.106 1.294-.013 1.377.078 1.405.167 1.372.248 1.283.317 1.146.361.951.201-.086.19-.137.191-.137.191-.137.194-.137.167-.18.167-.18.167-.18.167-.18.02-.027.02-.027.02-.027.021-.028.13-.207.13-.207.129-.208.129-.211.088-.235.092-.234.092-.235.089-.235.01-.027.01-.028.01-.027.01-.027.008-.043.006-.043.007-.043.007-.043.037-.22.038-.219.037-.219.038-.219.013-.113.01-.133.01-.149Z" fill="#B2AEAB"/><path d="m27.341 19.69-.272.042-.297.047-.292.047-.293.043-.1.016.055 2.507.157 2.973.245 2.93.221 1.885.208-.016.297-.02.296-.02.306-.019.307-.023.146-.012c-1.474-4.76-1.328-8.32-.984-10.38Z" fill="#C73305"/><path opacity=".42" d="m26.101 20.491.034 1.584c1.458-.094 3.552-.055 5.813.54-1.403-2.23-4.073-2.343-5.847-2.124Z" fill="#fff"/><path d="M3.875 26.433c0-.215.007-.426.014-.641.075-1.62.313-2.766.613-3.575-1.045-.102-2.837 1.181-3.855 1.99l-.034.052-.071.125-.058.152-.058.153-.058.152-.061.145-.045.176-.044.176-.044.176-.044.176-.028.192-.027.195-.027.196-.004.027 3.831.133Z" fill="#FAB442"/><path d="M31.727 3.786c.555.943.79 1.31 1.134 1.854 1.386-1.037 2.353-1.745 3.943-3.153.627-.567.313-.285.64-.586.102-.094.409-.388.627-.61.61-.622.79-.752.684-1.057-.068-.195-.262-.29-.432-.21-.13.058-.252.124-.382.187-.384.207-.415.223-.742.407-.078.047-.49.285-.729.434a40.712 40.712 0 0 0-3.245 2.225c-.306-.465-.654-.97-1.24-1.826-.323.336-2.097 2.159-3.081 3.555-.228.321.099.77.415.575.688-.418 1.768-1.267 2.408-1.795Z" fill="url(#g)"/><path d="M33.273 46.353c.293-.402.695-1.005 1.083-1.58-.33-.223-1.686-1.161-2.837-1.67a.298.298 0 0 0-.344.074.425.425 0 0 0-.02.544c.368.462.8.912 1.212 1.318-.313.36-.572.677-1.44 1.73.568.39 3.5 2.51 5.567 3.21.334.114.58-.363.33-.641-.54-.614-1.848-1.807-3.551-2.985Z" fill="url(#h)"/><path d="M46.618 46.992c-1.485-.74-4.597-2.077-8.71-3.501.187-.293 0 .004 1.106-1.768-2.905-.65-2.731-.602-4.795-1.001-.449-.078-.898-.16-1.351-.231a.288.288 0 0 0-.31.168c-.058.137.017.294.163.348.43.157.858.301 1.29.446.093.031 1.588.516 2.602.814.177.054.355.105.532.156-.195.29-.004.004-1.12 1.67 4.767 1.85 8.533 2.965 10.392 3.395.324.079.497-.348.201-.496Z" fill="url(#i)"/><path d="M31.482 8.425c1.55-.692 4.788-1.932 9.061-3.227-.184-.3 0 .004-1.1-1.803 3.01-.56 2.83-.516 4.965-.853.467-.066.93-.133 1.4-.187a.297.297 0 0 1 .313.176c.054.14-.024.293-.174.34-.446.145-.892.274-1.341.407a100.364 100.364 0 0 1-3.256.872c.194.293.004.004 1.117 1.705C37.51 7.553 33.6 8.55 31.673 8.925c-.33.067-.498-.363-.191-.5Z" fill="url(#j)"/></g><defs><linearGradient id="b" x1=".04" y1="28.076" x2="6.809" y2="27.439" gradientUnits="userSpaceOnUse"><stop stop-color="#FF5405"/><stop offset=".181" stop-color="#FF6705"/><stop offset=".501" stop-color="#FF8205"/><stop offset=".784" stop-color="#FF9205"/><stop offset="1" stop-color="#FF9805"/></linearGradient><linearGradient id="c" x1="17.731" y1="23.241" x2="19.709" y2="36.376" gradientUnits="userSpaceOnUse"><stop stop-color="#E1E1DF"/><stop offset="1" stop-color="#BDBCB9"/></linearGradient><linearGradient id="d" x1="21.516" y1="25.372" x2="31.816" y2="24.403" gradientUnits="userSpaceOnUse"><stop stop-color="#FF5405"/><stop offset=".181" stop-color="#FF6705"/><stop offset=".501" stop-color="#FF8205"/><stop offset=".784" stop-color="#FF9205"/><stop offset="1" stop-color="#FF9805"/></linearGradient><linearGradient id="e" x1="30.152" y1="39.764" x2="26.304" y2="8.051" gradientUnits="userSpaceOnUse"><stop stop-color="#FF5405"/><stop offset=".181" stop-color="#FF6705"/><stop offset=".501" stop-color="#FF8205"/><stop offset=".784" stop-color="#FF9205"/><stop offset="1" stop-color="#FF9805"/></linearGradient><linearGradient id="g" x1="28.833" y1="2.82" x2="38.788" y2="2.82" gradientUnits="userSpaceOnUse"><stop stop-color="#FF5405"/><stop offset=".181" stop-color="#FF6705"/><stop offset=".501" stop-color="#FF8205"/><stop offset=".784" stop-color="#FF9205"/><stop offset="1" stop-color="#FF9805"/></linearGradient><linearGradient id="h" x1="30.924" y1="46.539" x2="36.923" y2="46.539" gradientUnits="userSpaceOnUse"><stop stop-color="#FF5405"/><stop offset=".181" stop-color="#FF6705"/><stop offset=".501" stop-color="#FF8205"/><stop offset=".784" stop-color="#FF9205"/><stop offset="1" stop-color="#FF9805"/></linearGradient><linearGradient id="i" x1="32.541" y1="43.994" x2="46.77" y2="43.994" gradientUnits="userSpaceOnUse"><stop stop-color="#FF5405"/><stop offset=".181" stop-color="#FF6705"/><stop offset=".501" stop-color="#FF8205"/><stop offset=".784" stop-color="#FF9205"/><stop offset="1" stop-color="#FF9805"/></linearGradient><linearGradient id="j" x1="46.067" y1="5.868" x2="31.393" y2="5.53" gradientUnits="userSpaceOnUse"><stop stop-color="#FF9805"/><stop offset=".216" stop-color="#FF9205"/><stop offset=".499" stop-color="#FF8205"/><stop offset=".819" stop-color="#FF6705"/><stop offset="1" stop-color="#FF5405"/></linearGradient><radialGradient id="f" cx="0" cy="0" r="1" gradientUnits="userSpaceOnUse" gradientTransform="translate(26.4283 25.2189) rotate(-7.07338) scale(4.98293 16.1006)"><stop stop-color="#4E4C44"/><stop offset=".14" stop-color="#716F69"/><stop offset=".346" stop-color="#9E9D99"/><stop offset=".541" stop-color="#C2C2BF"/><stop offset=".721" stop-color="#DCDCDB"/><stop offset=".879" stop-color="#ECEBEB"/><stop offset="1" stop-color="#F1F1F1"/></radialGradient><clipPath id="a"><path fill="#fff" d="M0 0h50v50H0z"/></clipPath></defs></svg>