<svg width="24" height="24" fill="none" xmlns="http://www.w3.org/2000/svg"><circle cx="12" cy="12" r="12" fill="#1DA1F2"/><g clip-path="url(#a)"><path d="M9.42 17.34c5.249 0 8.119-4.345 8.119-8.112 0-.124-.003-.246-.009-.369a5.8 5.8 0 0 0 1.424-1.476 5.693 5.693 0 0 1-1.639.449 2.862 2.862 0 0 0 1.255-1.577 5.725 5.725 0 0 1-1.812.692 2.853 2.853 0 0 0-4.862 2.6 8.104 8.104 0 0 1-5.881-2.979 2.848 2.848 0 0 0 .883 3.806 2.832 2.832 0 0 1-1.292-.356v.036c0 1.38.983 2.534 2.288 2.795a2.86 2.86 0 0 1-1.288.049 2.856 2.856 0 0 0 2.665 1.98 5.727 5.727 0 0 1-4.224 1.18A8.081 8.081 0 0 0 9.42 17.34" fill="#fff"/></g><defs><clipPath id="a"><path fill="#fff" transform="translate(5 6)" d="M0 0h14v11.387H0z"/></clipPath></defs></svg>