<svg width="24" height="24" fill="none" xmlns="http://www.w3.org/2000/svg"><circle cx="12" cy="12" r="12" fill="url(#a)"/><path d="m8.957 16.44.204.12c.857.508 1.84.776 2.842.777h.002c3.078 0 5.583-2.5 5.584-5.572 0-1.489-.58-2.889-1.634-3.942a5.553 5.553 0 0 0-3.948-1.634c-3.08 0-5.585 2.5-5.586 5.571a5.55 5.55 0 0 0 .853 2.966l.133.21-.564 2.056 2.114-.553ZM5.23 18.584l.953-3.474a6.682 6.682 0 0 1-.897-3.35c.002-3.697 3.016-6.704 6.72-6.704 1.796 0 3.483.699 4.752 1.966a6.657 6.657 0 0 1 1.966 4.742c-.002 3.696-3.016 6.704-6.719 6.704h-.003a6.725 6.725 0 0 1-3.21-.816l-3.562.932Z" fill="#fff"/><path fill-rule="evenodd" clip-rule="evenodd" d="M10.326 8.958c-.126-.28-.258-.285-.378-.29-.098-.004-.21-.004-.321-.004a.617.617 0 0 0-.448.21c-.154.168-.588.573-.588 1.397 0 .825.602 1.621.686 1.733.084.112 1.161 1.858 2.868 2.53 1.418.557 1.706.446 2.014.418.308-.027.993-.405 1.133-.796s.14-.726.098-.796c-.042-.07-.154-.112-.322-.196s-.993-.49-1.147-.545c-.154-.056-.266-.084-.378.084a9.721 9.721 0 0 1-.531.657c-.098.111-.196.125-.364.042-.168-.084-.708-.261-1.35-.832a5.05 5.05 0 0 1-.934-1.16c-.098-.168-.01-.259.074-.342.075-.075.168-.196.252-.294.084-.097.112-.167.168-.279.056-.112.028-.21-.014-.293-.042-.084-.369-.913-.518-1.244Z" fill="#fff"/><defs><linearGradient id="a" x1="12" y1="0" x2="12" y2="24" gradientUnits="userSpaceOnUse"><stop stop-color="#36F46C"/><stop offset="1" stop-color="#02D648"/></linearGradient></defs></svg>